<svg width="64" height="64" xmlns="http://www.w3.org/2000/svg">

 <g>
  <title>background</title>
  <rect fill="#e4ffe2" id="canvas_background" height="66" width="66" y="-1" x="-1"/>
 </g>
 <g>
  <title>Layer 1</title>
  <ellipse transform="rotate(40 42.705577850341804,39.548828125) matrix(1.3163236678361891,-0.4188365369796753,0.4188365369796753,1.3163236678361891,-27.790477406883333,7.044374607837668) " id="svg_27" ry="6.5" rx="10.7" fill="#841a1a" cy="37.897115" cx="41.496905"/>
  <path stroke="null" transform="rotate(75.16974639892578 44.17445755004882,36.812477111816406) " id="svg_28" fill="#936b57" d="m50.506065,29.003735c0,0 -11.052881,8.355215 -12.696164,15.617482c0,0 2.137545,-2.901638 5.301358,-4.781431c3.094557,-1.841545 7.870174,-6.994547 7.394806,-10.836051z"/>
  <ellipse transform="rotate(-20 17.897624969482443,28.322595596313473) matrix(1.2988586221337317,-0.41327939367294314,0.41327939367294314,1.2988586221337317,-27.981771453849177,10.046980111141874) " id="svg_31" ry="6.5" rx="10.7" fill="#841a1a" cy="22.982926" cx="28.009997"/>
  <path stroke="null" transform="rotate(-10 15.1178598403931,26.046308517456062) " id="svg_32" fill="#936b57" d="m22.493402,19.705495c0,0 -12.875257,6.784569 -14.789468,12.68163c0,0 2.489966,-2.356163 6.175422,-3.882591c3.604784,-1.495365 9.167789,-5.679675 8.614046,-8.799038z"/>
  <path stroke="null" transform="rotate(-10 44.42167663574215,15.250700950622553) " id="svg_38" fill="#468c3d" d="m53.18412,7.717556c0,0 -15.296325,8.060342 -17.570485,15.066288c0,0 2.958179,-2.799217 7.336651,-4.612676c4.282629,-1.776554 10.891703,-6.747683 10.233834,-10.453612z"/>
  <path stroke="null" transform="rotate(17.126731872558594 47.2557830810547,23.149759292602553) " id="svg_39" fill="#65ba64" d="m54.631327,16.808944c0,0 -12.875257,6.784569 -14.789468,12.68163c0,0 2.489965,-2.356163 6.175422,-3.882592c3.604784,-1.495365 9.167789,-5.679675 8.614046,-8.799038z"/>
  <path stroke="null" transform="rotate(-42.67970275878906 34.497169494628906,13.83941268920898) " id="svg_40" fill="#65ba64" d="m28.933125,22.067904c0,0 9.712975,-8.804352 11.157038,-16.456982c0,0 -1.878407,3.057598 -4.658681,5.038449c-2.719416,1.940539 -6.916095,7.370528 -6.498357,11.418533z"/>
  <path stroke="null" transform="rotate(178.36106872558594 17.25374984741211,51.49227905273437) " id="svg_42" fill="#65ba64" d="m10.684452,61.207412c0,0 11.467822,-10.395036 13.172784,-19.430271c0,0 -2.217778,3.610017 -5.500367,5.948747c-3.210734,2.291137 -8.165629,8.702164 -7.672418,13.481524z"/>
  <path stroke="null" transform="rotate(125.83815002441406 27.393718719482425,52.25320434570312) " id="svg_43" fill="#468c3d" d="m34.769263,45.912386c0,0 -12.875257,6.784569 -14.789468,12.68163c0,0 2.489965,-2.356163 6.175422,-3.882592c3.604784,-1.495365 9.167789,-5.679675 8.614046,-8.799038z"/>
  <path stroke="null" transform="rotate(-78.04867553710938 11.471608161926273,46.586456298828125) " id="svg_44" fill="#468c3d" d="m17.777879,53.663979c0,0 -11.008662,-7.572835 -12.645359,-14.155047c0,0 2.128981,2.629914 5.280138,4.333692c3.082179,1.669104 7.838685,6.339569 7.365221,9.821356z"/>
 </g>
</svg>